<svg xmlns="http://www.w3.org/2000/svg" width="209.095" height="199.242" viewBox="0 0 209.095 199.242">
  <g id="Layer1000" transform="translate(-148.897 -279.213)">
    <path id="path2" d="M294.708,311.359a1.437,1.437,0,0,0,.81-.866c.177-.624.13-1.013.412-.989a1.561,1.561,0,0,1,.553.177,10.036,10.036,0,0,1,1.574-4.1c1.439-2.312,1.429-2.07,1.511-2.718s-.153-.777.259-1.189.389-.306.483-.636a1.663,1.663,0,0,1,.495-.707c.188-.2.353-.33.542-.259s.353.236.4-.047-.215-.322-.338-.623-.03-.532.136-.6.419.006.443-.106-.065-.384.083-.615.331-.242.437-.2.142.236.3.189a.473.473,0,0,0,.336-.562c-.065-.349-.578-.579-.319-.745a2,2,0,0,0,.578-.491c.112-.166.271-.591.531-.5s.348.183.437.124.466-.881.649-1.106.083-.307.053-.573.189-.432.283-.538a12.93,12.93,0,0,1,.738-1.088,23.624,23.624,0,0,1,3.007-2.212c.589-.306.518-.506.766-.73s.412-.106.554.059a.3.3,0,0,0,.53-.071c.141-.259-.094-.577.259-.93s.624-.247.883-.66a8.594,8.594,0,0,1,1.625-1.413c.612-.483.93-.977,1.378-.824s.954.424.671.648a2.217,2.217,0,0,0-.624,1.39c.059.342.141.8-.118.966s-.412.035-.412-.047.071-.836-.236-.648a1.1,1.1,0,0,0-.4,1.119c.094.448.271.989.059,1.213a.928.928,0,0,1-.636.294c-.212.024-.424.13-.424.353s-.9,1.109-1.327,1.463-.944,1.486-.778,1.84.307,1.132-.071,1.462a5.7,5.7,0,0,0-1.039,2.231,2.576,2.576,0,0,1-.33,1.343,10.005,10.005,0,0,0-.9,1.119c-.283.495-1.227,2.078-1.628,2.668s-.165,1.628-.259,2.241-.338,1.64-.527,1.569-.353-.448-.353-.165a6.517,6.517,0,0,0,.082,1.3,1.163,1.163,0,0,1-.4,1.2c-.4.318-.589.612-.424.93s.553.6.212.813-1.5.6-1.331,1.025,1,.648,1,.848-.954.141-1.083.353.012.177.059.542-.118.589.2.718.8.259.495.412-.966.294-.813.518,1.142,1.331,1.378,1.778.789.612,1.154.954a13.115,13.115,0,0,1,1.272,1.119c.389.459.436.73.777,1.131s.93.506,1.3.766,1.578,1.437,2.038,1.778a4.967,4.967,0,0,0,.819.43c.218.154.118.467.289.65a1.9,1.9,0,0,0,.72.473.962.962,0,0,1,.531.491,2.766,2.766,0,0,0,1.268.935,6.414,6.414,0,0,1,1.672,1.084c.259.177-.318.66-.177.942s2.983,3.1,5.107,5.927a62.994,62.994,0,0,1,4.152,6.133,35.3,35.3,0,0,1,2.625,4.911c.177.565.471.624.636,1.1a2.354,2.354,0,0,0,.412.919,2.3,2.3,0,0,1,.506.919c.106.389.75,1.262.963,1.993a8.023,8.023,0,0,0,.943,2.241,13.078,13.078,0,0,1,1.451,3.1,6.1,6.1,0,0,0,.247,1.508c.212.506,1.307,3,1.555,3.427s0,.459-.082.824.141.612.353,1,.212.754.342.813.389.094.389.342-.094.353.118.695-.212.683-.118.919,1.025.742.8,1.2-.648.742-.377,1.025.188,2.1.247,2.485-.012,1.825-.012,2.143a13.046,13.046,0,0,0,.035,2.155c.118.247,1.107,1.413.789,1.3s-.718-.082-.718.083.012.471.012.471-.455,6.114-.643,8.379a28.132,28.132,0,0,1-1.557,6.581,14.207,14.207,0,0,1-.755,1.816,2.633,2.633,0,0,1-.542,1.486c-.5.5-.826.519-.826.684s.307.826-.047,1.368-1.132,1.769-.991,2.1a5.838,5.838,0,0,1-.763,2.425c-.271.4-.671,1.154-.836,1.036s-.448-.377-.636-.177,0,.8-.365.93-1.284-.059-1.3.283.871.565,1.013,1.025,0,.718-.565,1.413a3.951,3.951,0,0,1-1.767,1.331c-.636.224-1.154.506-1.248.883a.7.7,0,0,0,.161.777.455.455,0,0,0,.59.077c.207-.142.342-.331.348-.248a.526.526,0,0,1-.319.432,3.755,3.755,0,0,1-.944.225,4.352,4.352,0,0,0-1.021.851c-.159.171-1.811,2.088-2.518,2.961a12.484,12.484,0,0,0-1.533,2.571,3.032,3.032,0,0,1-.944,1.25c-.4.307-.448.944-.92,1.368s-.873.59-1.156,1.085-.142,1.793-.9,2.524-1.533.778-1.628,1.25a14.152,14.152,0,0,1-.377,2.406c-.307.944-.755,1.109-.731,2.005s-.212,2.194-.212,2.618.571.9.677,1.614-.587,1.278-.775,1.958a10.905,10.905,0,0,0-.355,2.246c0,.495.012.883.012.883a1.726,1.726,0,0,1,.851.553,1.826,1.826,0,0,1,.325,1.129,1.081,1.081,0,0,1-.567.922,1.592,1.592,0,0,1-1.213.254,1.848,1.848,0,0,1-.947-.576,1.792,1.792,0,0,1-.174-1.156c.074-.287.529-.869.576-1.241s.165-1.206.183-1.762a2.328,2.328,0,0,0-.207-1.253,1.582,1.582,0,0,1-.569-1.487c.141-.907.483-.824.6-1.543s.247-1.519-.059-1.778a9.427,9.427,0,0,1-1.248-1.083c-.294-.377-.389-.294-.73-.012s-.059.707-.377.9-.565.082-.919.33a1.31,1.31,0,0,0-.66,1.154c-.071.707.2.907-.412,1.46s-1.307.695-1.684,1.413a2.86,2.86,0,0,1-2.285,1.458c-1.1.1-2.4.079-3.157.716s-7.9,3.138-8.526,3.538a4.409,4.409,0,0,0-1.26,1.107,1.537,1.537,0,0,1-.86.695.4.4,0,0,1-.506-.459.805.805,0,0,0-.459-.73c-.318-.177-.825-.165-.719.224s.342.742.094,1.036-1.021,1.123-.809,1.642a3.046,3.046,0,0,1,.047,2.1c-.283.613-.519.425-.472.967s-.179,2.549.2,3.221a6.867,6.867,0,0,1,.807,1.851,3.98,3.98,0,0,1-.242,2.034c-.3.384-1.192.408-1.724.266a2.921,2.921,0,0,1-1.464-.958,3.5,3.5,0,0,1,.289-2.087c.254-.55.361-.395.542-.928a3.367,3.367,0,0,0,.179-1.2c-.212-2.949-.59-3.845-.472-4.364s-.071-.613-.165-1.368.425-2.1-.283-2.052-.967.4-2.265.684-.967,1.345-1.51.92a1.057,1.057,0,0,0-1.392-.165,10.749,10.749,0,0,1-1.887.92,3.805,3.805,0,0,0-1.415.448c-.259.236-1.368.354-1.722.661s-.92,1.109-1.462.448-.9-.377-.9-.212-.118.448-.424.094-.024-.778-.543-.142-.212,1.533-.991,2.217-1.2.873-1.439,1.368-.9.708-.944,1.132-.259.566-.708.684a1.64,1.64,0,0,0-1.3.8,26.744,26.744,0,0,0-1.607,2.858,20.938,20.938,0,0,0-1.7,4.721,17.975,17.975,0,0,1-1.553,3.876c-.236.189-.518,1.1-.73.93s-.365-.86-.648-.506.035.742-.294,1.225-.365.377-.612.459-.459-.012-.342.212.648.377.271.542-1.3.224-1.248.365.294.389-.13.412-.636.012-.86.306-.412.813-.542.53a6.3,6.3,0,0,1-.118-1.8c.024-.565-.294-.942-.306-1.331s.236-.459.306-.9.471-3.545.518-4.11.112-2.981.088-5.245.637-2.831.519-3.515-.472-.967-.307-1.439a5.615,5.615,0,0,0,.347-1.379c.012-.353-.4.683-.718.766s-.306-.365-.353-.789-.259-.353-.259-.73-.059-.165-.271-.471-.047-.624-.4-.883-.612,0-.883-.365-.106-.624-.389-.683a4.244,4.244,0,0,1-1.39-1.319c-.259-.436-.342-.989-.6-.813s-.542.448-.86.141-.686-1.118-1.512-1.448-.985-.284-1.009-.531a2.011,2.011,0,0,0-.777-1.072c-.471-.377-1.979-1.472-2.32-1.307s.059.33-.342.506-.989.53-.989,1.119a27.729,27.729,0,0,1,.024,2.885,6.416,6.416,0,0,0-.059,2.319c.189.284.966.461,1.249,1.309a3.174,3.174,0,0,1-.518,2.662,2.36,2.36,0,0,1-1.649.648,3.224,3.224,0,0,1-1.531-.954,3.044,3.044,0,0,1-.13-2.591c.436-.789,1.272-.742,1.39-2.626a10.382,10.382,0,0,0-.059-2.685,3.576,3.576,0,0,0-.86-1.519.776.776,0,0,1-.424-.766c-.012-.53-.612-1.084-.707-1.39s-.459-.495-.66-.871a2.517,2.517,0,0,0-.966-1.425c-.754-.495-1.39-.306-1.543-.73a4.429,4.429,0,0,0-.554-1.26c-.247-.283-.4-.459-.554-.318s-.259.106-.459-.389a6.732,6.732,0,0,0-1.826-1.837c-.966-.813-2.026-1.26-2.285-1.543a3.961,3.961,0,0,1-.938-1.008c-.33-.59-.755-.377-1.321-.873s-.731-1.132-1.486-1.746-.92-.377-1.746-1.085-1.746-1.675-2.335-1.321a1.532,1.532,0,0,0-.59,1.51,4.488,4.488,0,0,1-.142,1.769c-.259.9.212,2.925-.142,3.609a7.629,7.629,0,0,0-.307,2.9,4.472,4.472,0,0,0,.281,1.558c.142.307.478,1.413.159,1.892s-.567.508-.679.922-1.21.041-1.428-.343-.744-1.141-.49-1.785.714-.964.8-1.419a26.527,26.527,0,0,0-.032-3.726c-.094-.873.627-2.445-.034-4.995a15.364,15.364,0,0,0-2.077-5.335c-1.228-2.03-1.257-2.6-1.759-3.29s-.732-.851-.844-1.241.041-.4-.454-.8-1.111-.6-1.512-1.32a6.377,6.377,0,0,0-1.248-1.59,10.11,10.11,0,0,1-1.225-1.5c-.471-.659-.907-.813-1.107-1.484a3.858,3.858,0,0,0-.848-1.6,6.208,6.208,0,0,1-1.484-1.908c-.294-.813-.636-2.367-1.072-2.355s-.412.212-.377.518.035.636-.306.306-.224-.424-.495-1.2a16.265,16.265,0,0,1-.989-2.685,4.226,4.226,0,0,0-.789-2.014c-.506-.813-1.354-.794-1.944-2.115s.448-1.722,0-2.453-.212-1.038-.425-1.911-.566-1.085-.5-1.887-.59-.684-.637-1.3-.9-1.25-.944-1.675.543-.967-.024-2.241a9.735,9.735,0,0,1-.849-4.27,24.831,24.831,0,0,0-.312-4.988c-.236-.766-.518-.589-.2-1.213s.306-.389.353-.872.53-.9.377-1.307a3.321,3.321,0,0,1-.13-1.39c.024-.624.171-3.2.289-3.96s.259-1.746.307-2.312.472-.613.566-1.864a4.895,4.895,0,0,1,.448-2.217c.33-.684.778-2.618,1.179-3.7a37.84,37.84,0,0,1,2.076-5.213c1.014-1.887,2.739-5.217,3.495-6.964a20.632,20.632,0,0,1,1.742-3.439,4.246,4.246,0,0,0,.731-1.3c.33-.778.59-1.014.92-.873s.566-.236,1.109-.377.543-.826.5-1.3.472-.212.684-1.109,1.033-2.274,1.61-2.333.93.236,1.543-.483-.012-1.154.483-1.684,1.366-.66,1.484-1.2a8.107,8.107,0,0,1,2.5-2.484c.59-.283.377-.212.849-1.014s.613-1.274,1.156-1.486.944-.283.8-.991-.543-.448-1.628-1.816a7.551,7.551,0,0,1-1.217-1.689c-.247-.471-.636-.671-.459-1.248s.542-.824.224-1.319-.259-1.272-.93-2.167-.848-.824-1.472-1.637-1.011-.836-1.153-1.149a2.09,2.09,0,0,0-.514-.739c-.26-.254-.489-.291-.642-.7a1.948,1.948,0,0,0-.636-1c-.53-.565-1.837-1.708-2.132-2.049s-.542-1.213-1.166-1.378-1.672-.6-1.672-.872.412-.6.165-1.083.071-.589.247-.459.577.683.707.306.306-.671.73-.448a4.792,4.792,0,0,0,.919.495c.518.188.66.318,1.048.471s.224.224.612.306a1.043,1.043,0,0,1,.695.365c.2.212.318.153.777.236s2.584.866,3.1,1.014a2.215,2.215,0,0,1,1.251.544,2.781,2.781,0,0,0,1.423.822c.5.083.685.065.809.3s.171.319.354.367.342-.006.407.266-.071.349.112.443a7.238,7.238,0,0,1,1.051.579,1.191,1.191,0,0,0,.454.325c.26.112.083.095.525.5s.419.538.761.739a2.47,2.47,0,0,1,.815,1.088,4.478,4.478,0,0,0,.466.94c.189.248.531.609.561.29s-.083-1.253.13-1.153a4.437,4.437,0,0,1,1.293.975c.7.686.758,1.237,2.383,1.626a5.011,5.011,0,0,0,3.486-.153,7.074,7.074,0,0,1,2.108-.577c.542-.118.624-.447,1.1-.471a9.172,9.172,0,0,0,1.578-.518c.436-.118,1.684.106,2.1-.035s1.661-.6,2.285-.824,1.06-.8,1.661-.742a7.4,7.4,0,0,0,2.568-.4,16.623,16.623,0,0,1,3.05-.718,9.45,9.45,0,0,0,1.8-.212,3.312,3.312,0,0,1,1.4-.024,3.087,3.087,0,0,0,1.331-.177,4.352,4.352,0,0,1,1.378-.153c.412.012,1.943-.495,2.509-.306s1.439.472,1.982.142a2.585,2.585,0,0,1,1.722-.307c.849.024,6.142-.4,6.6-.059s.495.742,1.19.554.93-.695,1.343-.542.506.53.989.236a2.917,2.917,0,0,1,1.815-.583c.537.136,1.122.78,1.653.922a27.8,27.8,0,0,0,2.892.273,30.3,30.3,0,0,1,4.193.836c1.543.4,2.295.31,2.678.546a3.785,3.785,0,0,0,.933.5c.36.112.378-.006.7.154s.631.455.927.426.472-.361.868-.183.413.343.767.42a6.379,6.379,0,0,1,1.428.3,2.145,2.145,0,0,0,1.763.378Zm4.836,17.5a18.17,18.17,0,0,1,1.745,1.368c.354.472.731.708.9.637s.637-.731.92-.189.566,1.581.849,1.769.189.236.826.307.826.283.59.637a.434.434,0,0,0,.4.684,3.786,3.786,0,0,1,1.038,0c.5.094.637.165.59.425s-.142.142.448.731,1.014.148,2.148,2.745,2.212,4.176,2.553,4.246a3.6,3.6,0,0,1,1.519,1.531c.106.459-.085.5.175.972s1.179,1.1,1.533,1.831a7.447,7.447,0,0,1,.965,2.05,3.74,3.74,0,0,0,.648,1.625c.271.412,0,.707.377,1.354a58.5,58.5,0,0,1,2.7,6.008,11.3,11.3,0,0,0,1.156,2.477c.307.613-.354,1.227-.141,1.887s1.109,1.769,1.132,2.5a7.117,7.117,0,0,1-.684,3.42,1.223,1.223,0,0,0,.118,1.864,3.111,3.111,0,0,1,1.085,1.321,25.338,25.338,0,0,1-.283,5.142c-.4,1.321-1.127,2.221-.727,2.657s.919.6.542,1.048-.718.118-.695.695.612,2.332.33,2.744-.554.353-.365,1.154a4.522,4.522,0,0,1-.377,2.485c-.247.518-.035.919-.224,1.3s-.471.518-.424,1.013a15.015,15.015,0,0,1-1.858,4.553c-1.014,1.746-3.538,5.473-4.458,7.525s-7,8.348-8.8,10.189-5.052,5.057-5.746,5.74a36.38,36.38,0,0,1-3.315,2.188,18.133,18.133,0,0,1-2.147,1.6c-.731.377-2.618,1.321-3.326,1.675a85.335,85.335,0,0,1-8.492,2.9c-.991.118-5.072,1.58-5.709,1.038a4.771,4.771,0,0,0-2.666-1.274c-.8.071-.755,1.392-1.439,1.156a1.308,1.308,0,0,1-1.014-1.3c-.047-.684-.9-.472-1.345-.9s-1.156-1.038-.944-1.6.377-.307.118-1.2.165-.967.354-2.194a9.824,9.824,0,0,0,.142-2.17c0-.731-.448-1.227-.165-1.816s1.109-.33.778-.873-.944-.991-.377-1.533a5.9,5.9,0,0,0,1.179-3.043,29.911,29.911,0,0,0,.661-3.68,5.04,5.04,0,0,1,.5-2.642c.472-.92,1.392-2.618,1.3-3.279s-.189-.4.071-1.132a5.517,5.517,0,0,0,.637-2.052c.024-.92-.59-1.038.094-1.934a13.773,13.773,0,0,0,1.463-4.6c.118-.991.778-1.651.8-2.618s-.189-1.486.377-1.439.212-.519.165-1.038-.047-.354.354-.731a3.715,3.715,0,0,0,1.227-2.1c-.024-.731-.849-1.156-.566-1.533s.755-.566.755-1.557a6.9,6.9,0,0,1,.165-2.618c.354-1.321.967-2.029,1.533-3.8s.142-2.9.9-3.609.4-.991.731-2.005.566-1.156,1.132-2.571a31.552,31.552,0,0,0,1.944-5.878c.224-1.672.061-1.789.769-2.567s.566-1.651.92-2.5.472-.637,1.038-1.6-.448-1.415.613-2.17,1.25-1.132,1.816-2.854-.045-1.671.332-2.673,2.026-2.285,2.2-2.732a3.471,3.471,0,0,0,.483-1.884c-.141-.695-.247-.6.094-1.3s2.22-2.408,2.455-4.271-.071-1.439.307-1.392a1.382,1.382,0,0,0,1.109-1.628c-.283-.9-.849-2.878-.189-2.548s.566,1.038.849.8.537-1.334.826-.967Zm-45.294-11.243c.141-.283.188-.306.589-.212s.931-1.2,1.366-.954.93.73,1.307.589.563-.871,1.317-.776,2.123-.637,3.538-.5a12.5,12.5,0,0,0,2.689-.283c.731.024,2.618-.189,3.491-.189s.708-.165,1.51,0a3.368,3.368,0,0,0,1.581.071,2.987,2.987,0,0,1,1.958.189,3.994,3.994,0,0,0,1.958.92,19.616,19.616,0,0,1,1.981.566c.354.024.307-1.109.708-.826s2.406.684,3.7,1.18,2.147.991,3.538,1.58a9.059,9.059,0,0,1,2.335,1.109c.236.283.66.425.849.637s.59.071.59,1.085a4.649,4.649,0,0,1-.466,2.476c-.424.766-1.425,1.19-.754,1.625s1.154.271.766.624-1.508.754-1.437,1.178-.259.942.141,1.06.66-.707.824-.471-.094.824-.506,1.307-1.072.389-.695.989-.043,1-.515,1.85-.321,1.035-.639,1.224a1.535,1.535,0,0,0-.589,1.26c-.035.612-.082.848.2,1.083s.059.989-.283,1.013-.589.071-.577.424-1.155,2.544-.754,3.063.377.142-.307,1.415a4.635,4.635,0,0,0-.708,2.595,2.02,2.02,0,0,1-.59,1.392c-.212.165.212.519-.024,1.014a11.491,11.491,0,0,1-.991,1.345c-.354.519.236.826-.165,1.746s-.84,3.755-1.879,4.416a6.227,6.227,0,0,0-1.841,3.777c.142.425-.8,2.03-1.275,3.022s-2.833,6.562-2.785,8.12-1.558,5.76-2.219,7.884-.026,2.928-.474,3.352-1.415.66-1.085.9.637.425.354.873-.8.8-.8,1.628a4.54,4.54,0,0,1-.566,2.359c-.4.613-1.132.92-.943,1.109a.667.667,0,0,1,.047.967c-.354.354-.849.354-.826.944s.52,1.189.543,1.754-.165,1.672-.718,1.955a7.38,7.38,0,0,0-2.42,4c-.354,1.84-.849,2.972-1.085,4.152s.448.826.5,1.746.094,1.816-.4,1.887-.5.26-.543.661.161,2.969-.358,4.29-1.341,2.267-1.789,1.607-.071-1.061-.448-1.6a1.4,1.4,0,0,1-.189-1.58c.283-.566.448-.425-.047-1.156s-.283-1.816-.425-2.736-.566-1.109-.849-1.675.377-1.392-.212-1.911-1.014-.472-.9-1.25a1.612,1.612,0,0,0-.236-1.463,4.776,4.776,0,0,1-.425-2.217c0-.755-.283-.873-.425-1.887a6.218,6.218,0,0,0-.59-2.382,12.213,12.213,0,0,1-.92-3.161c-.236-1.227.024-1.675-.4-2.382s-.094-.731-.425-1.84-.236-.448-.377-1.25-.731-.944-.731-1.58-.8-2.265-1.038-3.916a18.352,18.352,0,0,0-.873-3.987c-.637-2.076-.519-1.981-.873-3.161s-.66-3.656-1.2-6.2-.118-2.43-.991-4.718a7.353,7.353,0,0,1-.684-2.949,8,8,0,0,0-1.274-2.548c-.354-.637-.024-.684-.212-1.911a11.292,11.292,0,0,0-.757-2.632,9.552,9.552,0,0,1-.918-2.888,12.525,12.525,0,0,0-1.132-4.293c-.613-1.109-.259-1.392-.543-1.864s-.87-.86-1-1.649a7.07,7.07,0,0,0-.483-1.684c-.212-.554.412-.612-.118-1.719s-1.578-1.59-1.437-2.273.224-.789-.141-1.178-.495-.153-.4-.8.2-.977-.165-1.378-.636-.353-.4-.742.082-.695-.141-1.449a4.2,4.2,0,0,1-.177-2.438,4.063,4.063,0,0,0,.342-1.484c.012-.33,1.2-.636,1.437-.872s-.33,0-.483-.424.471-.648.612-.86.542-.024.93.294.436-.247.659-.448-.13-.071.766-.259a6.992,6.992,0,0,0,1.814-.813c.518-.224.035.118,1.131.153a3.827,3.827,0,0,0,2.2-.589c.283-.2-.012-.082.848-.106s1.237-.177,1.307-.471-.165-.648.271-.365S254.108,317.9,254.249,317.618Zm-28.584,14.133c.271-.259.836-.742,1.272-.283s.459,1.048.648,1,.318-.365.577-.165.141.365.436.495.365-.047.612.377,1.025,2.026,1.543,3.286,1.166,3.039,1.755,4.11a8.246,8.246,0,0,0,.989,1.484c.188.271.071.294.118.8s.671,1.449.765,1.955a2.89,2.89,0,0,0,.671,1.6c.506.577.365.659.6,1.248s.612,1.307,1.272,2.8a4.322,4.322,0,0,1,.483,2.426c.012.377,0,.495.236.73s.624.353.624,1.107-.072,1.021-.337,1.092-.537.029-.36.431.108,1.574,1.062,1.939,1.048.695.813,1-.353.53-.624.506-.377.023-.2.283a1.159,1.159,0,0,0,.754.459c.389.118.459.165.624.4s.259,1.189.671,2.179a12.827,12.827,0,0,1,.824,2.049,6.442,6.442,0,0,0,.448,1.79,2.653,2.653,0,0,1,.742,1.814c.13,1.366-.306,1.154.212,1.861s.177,1,.389,1.755.718.766.671,1.508.589,1.013.53,1.684a3.145,3.145,0,0,0,.247,1.979,2.541,2.541,0,0,1,.306,1.46,1.9,1.9,0,0,0,.318.919c.165.294.05,1.037.451,1.7a6.457,6.457,0,0,1,.354,2.335,4.192,4.192,0,0,0,.4,1.274c.118.283-.141.8.142,1.321a6.024,6.024,0,0,0,.448.731,6.446,6.446,0,0,0,.172,2.134,2.278,2.278,0,0,0,.483.648s.784,4.578.949,6.347a23.616,23.616,0,0,0,.805,3.475,10.378,10.378,0,0,0,.33,2.461,11.53,11.53,0,0,1,.306,2.933,6.561,6.561,0,0,0,.941,2.878c.377.519-.047.849.024,1.415s-.282,1.16.236,1.973.483,1.19.271,1.578a1.172,1.172,0,0,0,.118,1.178c.212.33.624.8.436,1.189a3.173,3.173,0,0,0-.389,1.7,4.344,4.344,0,0,1,.177,1.354c-.024.8-.448.813.024,1.5s.8.754.86,1.1a3.394,3.394,0,0,1-.365,1.767,1.194,1.194,0,0,0-.412,1.048c.059.518-.224,1.048-.495,1.06a5.565,5.565,0,0,1-2.6-.707,4.767,4.767,0,0,0-1.566-.978,6.536,6.536,0,0,1-2.967-1.673c-1.038-1.109-1.274-1.321-1.887-1.462s-.448-.071-1.085-.8a3,3,0,0,0-1.2-.967c-.59-.354-1.274-.236-1.557-.8a2.919,2.919,0,0,0-.944-1.25A32.8,32.8,0,0,1,234.24,413c-.836-1.072-1.687-1.316-2.012-1.914a4.108,4.108,0,0,0-.7-1.058c-.36-.414-1.09-.95-1.726-1.563s-.9-.483-1.472-1.178a16.028,16.028,0,0,0-1.825-2.007,6.147,6.147,0,0,1-1.009-.981c-.112-.16-.522-.557-1.005-1.04a17.842,17.842,0,0,1-1.425-1.814,25.992,25.992,0,0,1-1.837-2.426c-.6-.989-1.237-1.213-1.92-2.155s-2.3-3.444-3.88-6.228-3.043-5.166-3.184-6.2a6.522,6.522,0,0,0-.708-2.17,7,7,0,0,1-.519-1.486c-.189-.708-.543-.566-.519-1.227s.212-.283-.165-1.132.094-.684-.236-1.533-.708-1.132-.708-1.769a4.576,4.576,0,0,0-.472-1.557c-.189-.59.307-4.057-.071-4.741s-.66-.566-.165-1.486,1.381-1.818,1.37-2.654-.024-1.131-.118-.777a1.6,1.6,0,0,1-.93.978c-.353.047-.6-.389-.318-.942a2.372,2.372,0,0,0,.259-.978c.047-.177.412-.389.318-.813a9.187,9.187,0,0,1-.412-1.979,5.565,5.565,0,0,1,.377-2.108c.224-.612.384-.739.39-1.052s.454-.538.443-1.295a7.848,7.848,0,0,1,1.092-3.086c.608-1.153,1.455-2.211,1.55-3.07a4.216,4.216,0,0,1,.9-2.026,4.988,4.988,0,0,0,.92-1.567,1.024,1.024,0,0,1,.218-.668,4.951,4.951,0,0,0,.829-1.381c.106-.436-.094-.4.565-.883s.624-.342.966-.966.858-2.71,1.636-2.592a2.241,2.241,0,0,0,1.911-1.109c.33-.519,1.329-2.165,1.717-2.589s.495-.518.448-.966a2.054,2.054,0,0,1,.094-1,2.58,2.58,0,0,1,1.354-1.649c.683-.271.967-.007,1.413-.412Z" transform="translate(-14.68 -1.951)" fill="#fff" fill-rule="evenodd"/>
    <path id="path4" d="M148.9,279.213V478.455h209.1V279.213Z" transform="translate(0 0)" fill="none"/>
  </g>
</svg>
